<svg width="18" height="20" viewBox="0 0 18 20" fill="none" xmlns="http://www.w3.org/2000/svg">
<path d="M12 15H17L15.595 13.595C15.4063 13.4063 15.2566 13.1822 15.1546 12.9357C15.0525 12.6891 14.9999 12.4249 15 12.158V9C15.0001 7.75894 14.6156 6.54834 13.8992 5.53489C13.1829 4.52144 12.17 3.75496 11 3.341V3C11 2.46957 10.7893 1.96086 10.4142 1.58579C10.0391 1.21071 9.53042 1 8.99998 1C8.46955 1 7.96084 1.21071 7.58577 1.58579C7.2107 1.96086 6.99998 2.46957 6.99998 3V3.341C4.66998 4.165 2.99998 6.388 2.99998 9V12.159C2.99998 12.697 2.78598 13.214 2.40498 13.595L0.999985 15H5.99998M12 15V16C12 16.7956 11.6839 17.5587 11.1213 18.1213C10.5587 18.6839 9.79563 19 8.99998 19C8.20434 19 7.44127 18.6839 6.87866 18.1213C6.31605 17.5587 5.99998 16.7956 5.99998 16V15M12 15H5.99998" stroke="#F3F8FF" stroke-width="2" stroke-linecap="round" stroke-linejoin="round"/>
</svg>
