<svg width="20" height="18" viewBox="0 0 20 18" fill="none" xmlns="http://www.w3.org/2000/svg">
<path d="M2.31799 2.31804C1.90012 2.7359 1.56865 3.23198 1.3425 3.77795C1.11635 4.32392 0.999954 4.90909 0.999954 5.50004C0.999954 6.09099 1.11635 6.67616 1.3425 7.22213C1.56865 7.7681 1.90012 8.26417 2.31799 8.68204L9.99999 16.364L17.682 8.68204C18.5259 7.83812 19 6.69352 19 5.50004C19 4.30656 18.5259 3.16196 17.682 2.31804C16.8381 1.47412 15.6935 1.00001 14.5 1.00001C13.3065 1.00001 12.1619 1.47412 11.318 2.31804L9.99999 3.63604L8.68199 2.31804C8.26413 1.90017 7.76805 1.5687 7.22208 1.34255C6.67611 1.1164 6.09095 1 5.49999 1C4.90904 1 4.32387 1.1164 3.7779 1.34255C3.23194 1.5687 2.73586 1.90017 2.31799 2.31804Z" stroke="#F3F8FF" stroke-width="2" stroke-linecap="round" stroke-linejoin="round"/>
</svg>
