<svg width="24" height="24" viewBox="0 0 24 24" fill="none" xmlns="http://www.w3.org/2000/svg">
<circle cx="12" cy="12" r="11" stroke="#F3F8FF" stroke-width="2"/>
<path d="M12.8789 7.48L12.6869 13.276H11.2709L11.0669 7.48H12.8789ZM12.0149 16.084C11.7109 16.084 11.4589 15.992 11.2589 15.808C11.0669 15.616 10.9709 15.38 10.9709 15.1C10.9709 14.82 11.0669 14.588 11.2589 14.404C11.4589 14.212 11.7109 14.116 12.0149 14.116C12.3109 14.116 12.5549 14.212 12.7469 14.404C12.9389 14.588 13.0349 14.82 13.0349 15.1C13.0349 15.38 12.9389 15.616 12.7469 15.808C12.5549 15.992 12.3109 16.084 12.0149 16.084Z" fill="white"/>
</svg>
